<svg width="297" height="24" viewBox="0 0 297 24" fill="none" xmlns="http://www.w3.org/2000/svg">
<path fill-rule="evenodd" clip-rule="evenodd" d="M110.899 7.43663C112.799 9.06461 113.548 11.7844 112.564 14.2324C111.945 15.7727 110.753 16.8887 109.339 17.4845L107.716 13.6798L106.989 20.6138L111.437 22.4013L110.133 19.3445C112.019 18.5397 113.596 17.0288 114.42 14.9781C115.762 11.6372 114.69 7.93389 112.03 5.78476L110.899 7.43663Z" fill="black"/>
<path d="M13 7.20857L11.7914 6L7 10.7914L2.20857 6L1 7.20857L5.79143 12L1 16.7914L2.20857 18L7 13.2086L11.7914 18L13 16.7914L8.20857 12L13 7.20857Z" fill="black" stroke="black"/>
<path d="M13 7.20857L11.7914 6L7 10.7914L2.20857 6L1 7.20857L5.79143 12L1 16.7914L2.20857 18L7 13.2086L11.7914 18L13 16.7914L8.20857 12L13 7.20857Z" fill="black" stroke="black"/>
<mask id="mask0_101_175" style="mask-type:luminance" maskUnits="userSpaceOnUse" x="21" y="6" width="12" height="12">
<path d="M28.11 11.78L32.83 7.06C32.9132 6.97093 32.9688 6.85963 32.99 6.73959C33.0113 6.61955 32.9972 6.49594 32.9496 6.38373C32.9019 6.27152 32.8228 6.17555 32.7217 6.10744C32.6206 6.03933 32.5019 6.00201 32.38 6C32.2169 5.99755 32.0591 6.0585 31.94 6.17L27.24 10.87H26.76L22.06 6.17C21.9403 6.06079 21.783 6.00193 21.621 6.00565C21.459 6.00938 21.3046 6.0754 21.19 6.19C21.0754 6.30461 21.0094 6.45897 21.0057 6.62099C21.0019 6.78302 21.0608 6.94025 21.17 7.06L25.87 11.75V12.25L21.17 16.94C21.0609 17.0598 21.002 17.217 21.0058 17.379C21.0095 17.541 21.0756 17.6953 21.1901 17.8099C21.3047 17.9244 21.459 17.9905 21.621 17.9942C21.783 17.998 21.9403 17.9392 22.06 17.83L26.75 13.13H27.25L31.94 17.83C32.0291 17.9132 32.1404 17.9688 32.2604 17.99C32.3805 18.0112 32.5041 17.9972 32.6163 17.9496C32.7285 17.9019 32.8245 17.8228 32.8926 17.7217C32.9607 17.6206 32.998 17.5019 33 17.38C33.0025 17.2169 32.9415 17.0591 32.83 16.94L28.11 12.22V11.78Z" fill="white"/>
</mask>
<g mask="url(#mask0_101_175)">
<path d="M26.003 12.855C29.54 9.386 33.438 5.562 33.438 5.562" stroke="#F70000" stroke-width="4"/>
</g>
<mask id="mask1_101_175" style="mask-type:luminance" maskUnits="userSpaceOnUse" x="21" y="6" width="12" height="12">
<path d="M28.11 11.78L32.83 7.06C32.9132 6.97093 32.9688 6.85963 32.99 6.73959C33.0113 6.61955 32.9972 6.49594 32.9496 6.38373C32.9019 6.27152 32.8228 6.17555 32.7217 6.10744C32.6206 6.03933 32.5019 6.00201 32.38 6C32.2169 5.99755 32.0591 6.0585 31.94 6.17L27.24 10.87H26.76L22.06 6.17C21.9403 6.06079 21.783 6.00193 21.621 6.00565C21.459 6.00938 21.3046 6.0754 21.19 6.19C21.0754 6.30461 21.0094 6.45897 21.0057 6.62099C21.0019 6.78302 21.0608 6.94025 21.17 7.06L25.87 11.75V12.25L21.17 16.94C21.0609 17.0598 21.002 17.217 21.0058 17.379C21.0095 17.541 21.0756 17.6953 21.1901 17.8099C21.3047 17.9244 21.459 17.9905 21.621 17.9942C21.783 17.998 21.9403 17.9392 22.06 17.83L26.75 13.13H27.25L31.94 17.83C32.0291 17.9132 32.1404 17.9688 32.2604 17.99C32.3805 18.0112 32.5041 17.9972 32.6163 17.9496C32.7285 17.9019 32.8245 17.8228 32.8926 17.7217C32.9607 17.6206 32.998 17.5019 33 17.38C33.0025 17.2169 32.9415 17.0591 32.83 16.94L28.11 12.22V11.78Z" fill="white"/>
</mask>
<g mask="url(#mask1_101_175)">
<path d="M20.5 5.438L33.313 18.501" stroke="#F70000" stroke-width="4"/>
</g>
<path fill-rule="evenodd" clip-rule="evenodd" d="M31.7914 6L33 7.20857L28.2086 12L33 16.7914L31.7914 18L27 13.2086L26.2005 14.0081L24.9919 12.7995L25.7914 12L21 7.20857L22.2086 6L27 10.7914L31.7914 6Z" fill="black"/>
<path d="M33 7.20857L33.3536 7.56212L33.7071 7.20857L33.3536 6.85502L33 7.20857ZM31.7914 6L32.145 5.64645L31.7914 5.29289L31.4379 5.64645L31.7914 6ZM28.2086 12L27.855 11.6464L27.5015 12L27.855 12.3536L28.2086 12ZM33 16.7914L33.3536 17.145L33.7071 16.7914L33.3536 16.4379L33 16.7914ZM31.7914 18L31.4379 18.3536L31.7914 18.7071L32.145 18.3536L31.7914 18ZM27 13.2086L27.3536 12.855L27 12.5015L26.6464 12.855L27 13.2086ZM26.2005 14.0081L25.8469 14.3616L26.2005 14.7152L26.554 14.3616L26.2005 14.0081ZM24.9919 12.7995L24.6384 12.446L24.2848 12.7995L24.6384 13.1531L24.9919 12.7995ZM25.7914 12L26.145 12.3536L26.4985 12L26.145 11.6464L25.7914 12ZM21 7.20857L20.6464 6.85502L20.2929 7.20857L20.6464 7.56212L21 7.20857ZM22.2086 6L22.5621 5.64645L22.2086 5.29289L21.855 5.64645L22.2086 6ZM27 10.7914L26.6464 11.145L27 11.4985L27.3536 11.145L27 10.7914ZM33.3536 6.85502L32.145 5.64645L31.4379 6.35355L32.6464 7.56212L33.3536 6.85502ZM28.5621 12.3536L33.3536 7.56212L32.6464 6.85502L27.855 11.6464L28.5621 12.3536ZM33.3536 16.4379L28.5621 11.6464L27.855 12.3536L32.6464 17.145L33.3536 16.4379ZM32.145 18.3536L33.3536 17.145L32.6464 16.4379L31.4379 17.6464L32.145 18.3536ZM26.6464 13.5621L31.4379 18.3536L32.145 17.6464L27.3536 12.855L26.6464 13.5621ZM26.554 14.3616L27.3536 13.5621L26.6464 12.855L25.8469 13.6545L26.554 14.3616ZM24.6384 13.1531L25.8469 14.3616L26.554 13.6545L25.3455 12.446L24.6384 13.1531ZM25.4379 11.6464L24.6384 12.446L25.3455 13.1531L26.145 12.3536L25.4379 11.6464ZM20.6464 7.56212L25.4379 12.3536L26.145 11.6464L21.3536 6.85502L20.6464 7.56212ZM21.855 5.64645L20.6464 6.85502L21.3536 7.56212L22.5621 6.35355L21.855 5.64645ZM27.3536 10.4379L22.5621 5.64645L21.855 6.35355L26.6464 11.145L27.3536 10.4379ZM31.4379 5.64645L26.6464 10.4379L27.3536 11.145L32.145 6.35355L31.4379 5.64645Z" fill="black"/>
<path fill-rule="evenodd" clip-rule="evenodd" d="M47.802 9.98946L47 10.7914L42.2086 6L41 7.20857L45.7914 12L45.0777 12.7137L46.2863 13.9223L47 13.2086L51.7914 18L53 16.7914L48.2086 12L49.0105 11.198L47.802 9.98946ZM51.6043 8.60429L53 7.20857L51.7914 6L50.3957 7.39571L51.6043 8.60429Z" fill="black"/>
<path d="M47 10.7914L46.6464 11.145L47 11.4985L47.3536 11.145L47 10.7914ZM47.802 9.98946L48.1555 9.63591L47.802 9.28236L47.4484 9.63591L47.802 9.98946ZM42.2086 6L42.5621 5.64645L42.2086 5.29289L41.855 5.64645L42.2086 6ZM41 7.20857L40.6464 6.85502L40.2929 7.20857L40.6464 7.56212L41 7.20857ZM45.7914 12L46.145 12.3536L46.4985 12L46.145 11.6464L45.7914 12ZM45.0777 12.7137L44.7241 12.3602L44.3706 12.7137L44.7241 13.0673L45.0777 12.7137ZM46.2863 13.9223L45.9327 14.2759L46.2863 14.6294L46.6398 14.2759L46.2863 13.9223ZM47 13.2086L47.3536 12.855L47 12.5015L46.6464 12.855L47 13.2086ZM51.7914 18L51.4379 18.3536L51.7914 18.7071L52.145 18.3536L51.7914 18ZM53 16.7914L53.3536 17.145L53.7071 16.7914L53.3536 16.4379L53 16.7914ZM48.2086 12L47.855 11.6464L47.5015 12L47.855 12.3536L48.2086 12ZM49.0105 11.198L49.3641 11.5516L49.7176 11.198L49.3641 10.8445L49.0105 11.198ZM53 7.20857L53.3536 7.56212L53.7071 7.20857L53.3536 6.85502L53 7.20857ZM51.6043 8.60429L51.2507 8.95784L51.6043 9.31139L51.9578 8.95784L51.6043 8.60429ZM51.7914 6L52.145 5.64645L51.7914 5.29289L51.4379 5.64645L51.7914 6ZM50.3957 7.39571L50.0422 7.04216L49.6886 7.39571L50.0422 7.74927L50.3957 7.39571ZM47.3536 11.145L48.1555 10.343L47.4484 9.63591L46.6464 10.4379L47.3536 11.145ZM41.855 6.35355L46.6464 11.145L47.3536 10.4379L42.5621 5.64645L41.855 6.35355ZM41.3536 7.56212L42.5621 6.35355L41.855 5.64645L40.6464 6.85502L41.3536 7.56212ZM46.145 11.6464L41.3536 6.85502L40.6464 7.56212L45.4379 12.3536L46.145 11.6464ZM45.4312 13.0673L46.145 12.3536L45.4379 11.6464L44.7241 12.3602L45.4312 13.0673ZM46.6398 13.5688L45.4312 12.3602L44.7241 13.0673L45.9327 14.2759L46.6398 13.5688ZM46.6464 12.855L45.9327 13.5688L46.6398 14.2759L47.3536 13.5621L46.6464 12.855ZM52.145 17.6464L47.3536 12.855L46.6464 13.5621L51.4379 18.3536L52.145 17.6464ZM52.6464 16.4379L51.4379 17.6464L52.145 18.3536L53.3536 17.145L52.6464 16.4379ZM47.855 12.3536L52.6464 17.145L53.3536 16.4379L48.5621 11.6464L47.855 12.3536ZM48.657 10.8445L47.855 11.6464L48.5621 12.3536L49.3641 11.5516L48.657 10.8445ZM49.3641 10.8445L48.1555 9.63591L47.4484 10.343L48.657 11.5516L49.3641 10.8445ZM52.6464 6.85502L51.2507 8.25073L51.9578 8.95784L53.3536 7.56212L52.6464 6.85502ZM51.4379 6.35355L52.6464 7.56212L53.3536 6.85502L52.145 5.64645L51.4379 6.35355ZM50.7493 7.74927L52.145 6.35355L51.4379 5.64645L50.0422 7.04216L50.7493 7.74927ZM50.0422 7.74927L51.2507 8.95784L51.9578 8.25073L50.7493 7.04216L50.0422 7.74927Z" fill="black"/>
<path fill-rule="evenodd" clip-rule="evenodd" d="M67.7746 10.0168L67 10.7914L62.2086 6L61 7.20857L65.7914 12L64.9313 12.8602L66.1398 14.0687L67 13.2086L71.7914 18L73 16.7914L68.2086 12L68.9832 11.2254L67.7746 10.0168Z" fill="black"/>
<path d="M67 10.7914L66.6464 11.145L67 11.4985L67.3536 11.145L67 10.7914ZM67.7746 10.0168L68.1282 9.66325L67.7746 9.3097L67.4211 9.66325L67.7746 10.0168ZM62.2086 6L62.5621 5.64645L62.2086 5.29289L61.855 5.64645L62.2086 6ZM61 7.20857L60.6464 6.85502L60.2929 7.20857L60.6464 7.56212L61 7.20857ZM65.7914 12L66.145 12.3536L66.4985 12L66.145 11.6464L65.7914 12ZM64.9313 12.8602L64.5777 12.5066L64.2241 12.8602L64.5777 13.2137L64.9313 12.8602ZM66.1398 14.0687L65.7863 14.4223L66.1398 14.7759L66.4934 14.4223L66.1398 14.0687ZM67 13.2086L67.3536 12.855L67 12.5015L66.6464 12.855L67 13.2086ZM71.7914 18L71.4379 18.3536L71.7914 18.7071L72.145 18.3536L71.7914 18ZM73 16.7914L73.3536 17.145L73.7071 16.7914L73.3536 16.4379L73 16.7914ZM68.2086 12L67.855 11.6464L67.5015 12L67.855 12.3536L68.2086 12ZM68.9832 11.2254L69.3367 11.5789L69.6903 11.2254L69.3367 10.8718L68.9832 11.2254ZM67.3536 11.145L68.1282 10.3704L67.4211 9.66325L66.6464 10.4379L67.3536 11.145ZM61.855 6.35355L66.6464 11.145L67.3536 10.4379L62.5621 5.64645L61.855 6.35355ZM61.3536 7.56212L62.5621 6.35355L61.855 5.64645L60.6464 6.85502L61.3536 7.56212ZM66.145 11.6464L61.3536 6.85502L60.6464 7.56212L65.4379 12.3536L66.145 11.6464ZM65.2848 13.2137L66.145 12.3536L65.4379 11.6464L64.5777 12.5066L65.2848 13.2137ZM66.4934 13.7152L65.2848 12.5066L64.5777 13.2137L65.7863 14.4223L66.4934 13.7152ZM66.6464 12.855L65.7863 13.7152L66.4934 14.4223L67.3536 13.5621L66.6464 12.855ZM72.145 17.6464L67.3536 12.855L66.6464 13.5621L71.4379 18.3536L72.145 17.6464ZM72.6464 16.4379L71.4379 17.6464L72.145 18.3536L73.3536 17.145L72.6464 16.4379ZM67.855 12.3536L72.6464 17.145L73.3536 16.4379L68.5621 11.6464L67.855 12.3536ZM68.6296 10.8718L67.855 11.6464L68.5621 12.3536L69.3367 11.5789L68.6296 10.8718ZM69.3367 10.8718L68.1282 9.66325L67.4211 10.3704L68.6296 11.5789L69.3367 10.8718Z" fill="black"/>
<path fill-rule="evenodd" clip-rule="evenodd" d="M72.8499 10.862C72.6164 9.62617 72.0097 8.46263 71.041 7.57152L72.1986 5.92373C73.6064 7.12939 74.4999 8.74663 74.8353 10.4773L78.098 9.84519L76.6427 12H68.7817L68.3792 11.7282L72.8499 10.862Z" fill="black"/>
<path fill-rule="evenodd" clip-rule="evenodd" d="M92.3386 14.6496L88.5185 12.7526L88.393 13.0196L88.5378 13.4501L94.5539 17.8926L97.1265 17.0273L94.1499 15.5491C95.062 13.7125 95.2805 11.5394 94.576 9.44473C94.0477 7.87416 93.0806 6.57724 91.8572 5.64378L90.9799 7.51172C91.7374 8.18329 92.3349 9.05539 92.6803 10.0824C93.2096 11.6557 93.0274 13.2785 92.3386 14.6496Z" fill="black"/>
<path fill-rule="evenodd" clip-rule="evenodd" d="M87.7863 10.0051L87 10.7914L82.2086 6L81 7.20857L85.7914 12L84.9738 12.8176L86.1824 14.0262L87 13.2086L87.2238 13.4324L88.4324 12.2238L88.2086 12L88.9949 11.2137L87.7863 10.0051Z" fill="black"/>
<path d="M87.7863 10.0051L88.1399 9.65154L87.7863 9.29798L87.4328 9.65154L87.7863 10.0051ZM87 10.7914L86.6464 11.145L87 11.4985L87.3536 11.145L87 10.7914ZM82.2086 6L82.5621 5.64645L82.2086 5.29289L81.855 5.64645L82.2086 6ZM81 7.20857L80.6464 6.85502L80.2929 7.20857L80.6464 7.56212L81 7.20857ZM85.7914 12L86.145 12.3536L86.4985 12L86.145 11.6464L85.7914 12ZM84.9738 12.8176L84.6203 12.464L84.2667 12.8176L84.6203 13.1711L84.9738 12.8176ZM86.1824 14.0262L85.8289 14.3797L86.1824 14.7333L86.536 14.3797L86.1824 14.0262ZM87 13.2086L87.3536 12.855L87 12.5015L86.6464 12.855L87 13.2086ZM87.2238 13.4324L86.8703 13.786L87.2238 14.1395L87.5774 13.786L87.2238 13.4324ZM88.4324 12.2238L88.786 12.5774L89.1395 12.2238L88.786 11.8703L88.4324 12.2238ZM88.2086 12L87.855 11.6464L87.5015 12L87.855 12.3536L88.2086 12ZM88.9949 11.2137L89.3485 11.5672L89.702 11.2137L89.3485 10.8601L88.9949 11.2137ZM87.4328 9.65154L86.6464 10.4379L87.3536 11.145L88.1399 10.3586L87.4328 9.65154ZM87.3536 10.4379L82.5621 5.64645L81.855 6.35355L86.6464 11.145L87.3536 10.4379ZM81.855 5.64645L80.6464 6.85502L81.3536 7.56212L82.5621 6.35355L81.855 5.64645ZM80.6464 7.56212L85.4379 12.3536L86.145 11.6464L81.3536 6.85502L80.6464 7.56212ZM85.4379 11.6464L84.6203 12.464L85.3274 13.1711L86.145 12.3536L85.4379 11.6464ZM84.6203 13.1711L85.8289 14.3797L86.536 13.6726L85.3274 12.464L84.6203 13.1711ZM86.536 14.3797L87.3536 13.5621L86.6464 12.855L85.8289 13.6726L86.536 14.3797ZM86.6464 13.5621L86.8703 13.786L87.5774 13.0789L87.3536 12.855L86.6464 13.5621ZM87.5774 13.786L88.786 12.5774L88.0789 11.8703L86.8703 13.0789L87.5774 13.786ZM88.786 11.8703L88.5621 11.6464L87.855 12.3536L88.0789 12.5774L88.786 11.8703ZM88.5621 12.3536L89.3485 11.5672L88.6414 10.8601L87.855 11.6464L88.5621 12.3536ZM89.3485 10.8601L88.1399 9.65154L87.4328 10.3586L88.6414 11.5672L89.3485 10.8601Z" fill="black"/>
<path fill-rule="evenodd" clip-rule="evenodd" d="M132.845 12.6442C132.449 10.9358 131.357 9.56742 129.938 8.76946L131.061 7.10883C132.878 8.18329 134.269 9.97281 134.784 12.1949C135.781 16.5008 133.112 20.7944 128.806 21.7923C126.653 22.2913 124.511 21.8638 122.771 20.7786L121.013 23.5985L119.432 16.7793L126.251 15.1988L123.842 19.0627C125.14 19.8807 126.737 20.2187 128.355 19.8439C131.579 19.0966 133.592 15.8688 132.845 12.6442Z" fill="black"/>
<path fill-rule="evenodd" clip-rule="evenodd" d="M152.936 12.8752C153.241 10.8021 152.444 8.81774 150.987 7.51818L152.109 5.84383C154.18 7.56816 155.327 10.3 154.905 13.1653C154.26 17.5381 150.207 20.5595 145.834 19.9153C143.648 19.5932 141.81 18.4127 140.587 16.7669L137.919 18.7493L138.94 11.824L145.865 12.8443L142.21 15.5606C143.12 16.7964 144.483 17.6947 146.125 17.9367C149.4 18.4191 152.453 16.1499 152.936 12.8752Z" fill="black"/>
<path d="M203.324 4.90688C201.502 5.84861 200.041 7.47175 199.371 9.57758C198.03 13.7892 200.358 18.2771 204.569 19.6181C208.781 20.9592 213.275 18.6436 214.616 14.432C215.748 10.8778 214.262 7.1407 211.244 5.24593L210.613 7.22788C212.585 8.71615 213.503 11.3382 212.711 13.8252C211.706 16.9791 208.327 18.7262 205.173 17.7219C202.019 16.7177 200.272 13.3384 201.276 10.1844C201.78 8.60262 202.886 7.40173 204.253 6.70334L206.344 10.7485L208.468 4.07846L201.798 1.95467L203.324 4.90688Z" fill="black"/>
<path d="M226.809 4.01538C224.759 4.06213 222.734 4.87925 221.207 6.47717C218.154 9.67302 218.276 14.7274 221.472 17.7807C224.668 20.8341 229.723 20.7259 232.776 17.5301C235.353 14.8331 235.657 10.8229 233.778 7.79612L232.341 9.30004C233.459 11.5025 233.133 14.2613 231.33 16.1484C229.043 18.5417 225.24 18.6284 222.847 16.3419C220.453 14.0553 220.367 10.2521 222.653 7.85878C223.8 6.65854 225.321 6.06509 226.856 6.03719L226.959 10.5898L231.795 5.52848L226.734 0.692846L226.809 4.01538Z" fill="black"/>
<path d="M248.936 4.48821C246.929 4.06915 244.771 4.40602 242.922 5.61639C239.224 8.03714 238.197 12.9877 240.618 16.6859C243.039 20.384 247.986 21.4241 251.685 19.0034C254.805 16.9605 256.011 13.1237 254.866 9.74969L253.126 10.8889C253.716 13.2874 252.773 15.9006 250.589 17.33C247.82 19.1428 244.096 18.3654 242.283 15.596C240.47 12.8265 241.248 9.10259 244.017 7.28977C245.406 6.38062 247.022 6.14736 248.523 6.46786L247.592 10.9255L253.449 7.09176L249.615 1.23495L248.936 4.48821Z" fill="black"/>
<path d="M272.716 6.4222C271.266 4.9722 269.276 4.0722 267.066 4.0722C262.646 4.0722 259.076 7.6522 259.076 12.0722C259.076 16.4922 262.646 20.0722 267.066 20.0722C270.796 20.0722 273.906 17.5222 274.796 14.0722H272.716C271.896 16.4022 269.676 18.0722 267.066 18.0722C263.756 18.0722 261.066 15.3822 261.066 12.0722C261.066 8.7622 263.756 6.0722 267.066 6.0722C268.726 6.0722 270.206 6.7622 271.286 7.8522L268.066 11.0722H275.066V4.0722L272.716 6.4222Z" fill="black"/>
<path d="M292.64 6.35C291.19 4.9 289.2 4 286.99 4C282.57 4 279 7.58 279 12C279 16.42 282.57 20 286.99 20C290.72 20 293.83 17.45 294.72 14H292.64C291.82 16.33 289.6 18 286.99 18C283.68 18 280.99 15.31 280.99 12C280.99 8.69 283.68 6 286.99 6C288.65 6 290.13 6.69 291.21 7.78L287.99 11H294.99V4L292.64 6.35Z" fill="black"/>
<path d="M159.015 12.3233C159.097 14.3722 159.949 16.3833 161.573 17.8822C164.821 20.88 169.872 20.6705 172.87 17.4225C175.868 14.1744 175.673 9.12239 172.425 6.12461C169.684 3.5948 165.669 3.35936 162.675 5.29096L164.203 6.70168C166.386 5.54564 169.15 5.82412 171.068 7.5943C173.5 9.83925 173.653 13.6404 171.408 16.0728C169.163 18.5051 165.362 18.6574 162.929 16.4125C161.709 15.2866 161.09 13.7758 161.035 12.2423L165.586 12.06L160.442 7.31238L155.694 12.4563L159.015 12.3233Z" fill="black"/>
<path d="M180.264 7.52369C179.293 9.33 179.005 11.4949 179.642 13.6112C180.915 17.8437 185.372 20.2308 189.605 18.9572C193.837 17.6836 196.237 13.2334 194.963 9.00088C193.888 5.42908 190.55 3.18575 186.99 3.3276L187.59 5.31938C190.057 5.43322 192.296 7.07786 193.048 9.57717C194.002 12.7468 192.201 16.0978 189.031 17.0516C185.862 18.0053 182.511 16.2045 181.557 13.0349C181.079 11.4453 181.313 9.82926 182.045 8.48099L186.057 10.6366L184.04 3.93349L177.337 5.9505L180.264 7.52369Z" fill="black"/>
<path fill-rule="evenodd" clip-rule="evenodd" d="M103.464 7.25509L102.209 6L101 7.20857L102.255 8.46366L103.464 7.25509Z" fill="black"/>
<path d="M103.464 7.25509L103.817 7.60864L104.171 7.25509L103.817 6.90154L103.464 7.25509ZM102.209 6L102.562 5.64645L102.209 5.29289L101.855 5.64645L102.209 6ZM101 7.20857L100.646 6.85502L100.293 7.20857L100.646 7.56212L101 7.20857ZM102.255 8.46366L101.902 8.81721L102.255 9.17077L102.609 8.81721L102.255 8.46366ZM103.817 6.90154L102.562 5.64645L101.855 6.35355L103.11 7.60864L103.817 6.90154ZM101.855 5.64645L100.646 6.85502L101.354 7.56212L102.562 6.35355L101.855 5.64645ZM100.646 7.56212L101.902 8.81721L102.609 8.11011L101.354 6.85502L100.646 7.56212ZM102.609 8.81721L103.817 7.60864L103.11 6.90154L101.902 8.11011L102.609 8.81721Z" fill="black"/>
</svg>
